<svg width="146" height="28" viewBox="0 0 146 28" fill="none" xmlns="http://www.w3.org/2000/svg">
<g clip-path="url(#clip0_116_2)">
<path d="M-199.292 61.8371C-205.233 61.8371 -209.94 60.1915 -213.413 56.9003C-216.886 53.5633 -218.623 48.8093 -218.623 42.6382V31.1188C-218.623 24.9477 -216.886 20.2166 -213.413 16.9253C-209.94 13.5883 -205.233 11.9199 -199.292 11.9199C-193.397 11.9199 -188.85 13.5426 -185.651 16.7882C-182.406 19.988 -180.784 24.3992 -180.784 30.0217V30.4331H-189.695V29.7475C-189.695 26.9133 -190.495 24.582 -192.094 22.7536C-193.648 20.9251 -196.047 20.0109 -199.292 20.0109C-202.491 20.0109 -205.004 20.9937 -206.832 22.9593C-208.66 24.9249 -209.574 27.599 -209.574 30.9817V42.7753C-209.574 46.1123 -208.66 48.7864 -206.832 50.7977C-205.004 52.7634 -202.491 53.7462 -199.292 53.7462C-196.047 53.7462 -193.648 52.8319 -192.094 51.0035C-190.495 49.1293 -189.695 46.798 -189.695 44.0095V42.7753H-180.784V43.7353C-180.784 49.3578 -182.406 53.7919 -185.651 57.0374C-188.85 60.2372 -193.397 61.8371 -199.292 61.8371Z" fill="#B8D5F0"/>
<path d="M-173.137 60.8772V26.8676H-164.637V30.7074H-163.403C-162.9 29.3361 -162.077 28.3304 -160.935 27.6904C-159.747 27.0505 -158.376 26.7305 -156.822 26.7305H-152.709V34.4101H-156.959C-159.153 34.4101 -160.958 35.0043 -162.374 36.1928C-163.791 37.3356 -164.499 39.1184 -164.499 41.5411V60.8772H-173.137Z" fill="#B8D5F0"/>
<path d="M-131.671 61.8371C-135.053 61.8371 -138.046 61.1286 -140.651 59.7115C-143.21 58.2488 -145.221 56.2146 -146.683 53.609C-148.1 50.9577 -148.808 47.8493 -148.808 44.2838V43.461C-148.808 39.8955 -148.1 36.8099 -146.683 34.2044C-145.266 31.5531 -143.279 29.5189 -140.719 28.1018C-138.16 26.6391 -135.19 25.9077 -131.808 25.9077C-128.472 25.9077 -125.57 26.6619 -123.102 28.1704C-120.635 29.6332 -118.715 31.6902 -117.344 34.3415C-115.973 36.9471 -115.288 39.9869 -115.288 43.461V46.4094H-140.034C-139.942 48.7407 -139.074 50.6378 -137.429 52.1005C-135.784 53.5633 -133.773 54.2947 -131.397 54.2947C-128.975 54.2947 -127.192 53.769 -126.05 52.7176C-124.907 51.6663 -124.039 50.5006 -123.445 49.2207L-116.384 52.9233C-117.024 54.1119 -117.961 55.4146 -119.195 56.8317C-120.383 58.2031 -121.983 59.3916 -123.993 60.3972C-126.004 61.3572 -128.563 61.8371 -131.671 61.8371ZM-139.965 39.9641H-124.062C-124.245 37.9984 -125.045 36.4214 -126.461 35.2329C-127.832 34.0444 -129.637 33.4501 -131.877 33.4501C-134.207 33.4501 -136.058 34.0444 -137.429 35.2329C-138.8 36.4214 -139.645 37.9984 -139.965 39.9641Z" fill="#B8D5F0"/>
<path d="M-93.8902 61.8371C-96.5865 61.8371 -99.1228 61.1743 -101.499 59.8487C-103.83 58.4773 -105.704 56.4889 -107.12 53.8833C-108.537 51.2777 -109.245 48.1236 -109.245 44.421V43.3239C-109.245 39.6212 -108.537 36.4671 -107.12 33.8615C-105.704 31.256 -103.83 29.2903 -101.499 27.9647C-99.1685 26.5933 -96.6322 25.9077 -93.8902 25.9077C-91.8338 25.9077 -90.12 26.1591 -88.7491 26.6619C-87.3324 27.119 -86.1899 27.7133 -85.3216 28.4447C-84.4533 29.1761 -83.7907 29.9532 -83.3337 30.776H-82.0998V12.8798H-73.4626V60.8772H-81.9627V56.7631H-83.1966C-83.9735 58.0431 -85.1845 59.2087 -86.8297 60.2601C-88.4292 61.3115 -90.7827 61.8371 -93.8902 61.8371ZM-91.2854 54.2947C-88.6348 54.2947 -86.4184 53.449 -84.6361 51.7577C-82.8539 50.0206 -81.9627 47.5065 -81.9627 44.2153V43.5296C-81.9627 40.2383 -82.8539 37.747 -84.6361 36.0557C-86.3727 34.3186 -88.5891 33.4501 -91.2854 33.4501C-93.9359 33.4501 -96.1524 34.3186 -97.9346 36.0557C-99.7169 37.747 -100.608 40.2383 -100.608 43.5296V44.2153C-100.608 47.5065 -99.7169 50.0206 -97.9346 51.7577C-96.1524 53.449 -93.9359 54.2947 -91.2854 54.2947Z" fill="#B8D5F0"/>
<path d="M-63.8867 60.8772V26.8676H-55.2495V60.8772H-63.8867ZM-59.5681 22.8907C-61.1219 22.8907 -62.4471 22.3879 -63.5439 21.3822C-64.595 20.3765 -65.1205 19.0509 -65.1205 17.4053C-65.1205 15.7597 -64.595 14.434 -63.5439 13.4284C-62.4471 12.4227 -61.1219 11.9199 -59.5681 11.9199C-57.9686 11.9199 -56.6433 12.4227 -55.5922 13.4284C-54.5412 14.434 -54.0156 15.7597 -54.0156 17.4053C-54.0156 19.0509 -54.5412 20.3765 -55.5922 21.3822C-56.6433 22.3879 -57.9686 22.8907 -59.5681 22.8907Z" fill="#B8D5F0"/>
<path d="M-32.654 60.8772C-34.8933 60.8772 -36.7213 60.1915 -38.138 58.8202C-39.5089 57.4031 -40.1944 55.5289 -40.1944 53.1976V33.9987H-48.6945V26.8676H-40.1944V16.3082H-31.5573V26.8676H-22.2346V33.9987H-31.5573V51.6891C-31.5573 53.0605 -30.9174 53.7462 -29.6379 53.7462H-23.0572V60.8772H-32.654Z" fill="#B8D5F0"/>
<path d="M-14.4162 60.8772V26.8676H-5.77908V60.8772H-14.4162ZM-10.0977 22.8907C-11.6514 22.8907 -12.9767 22.3879 -14.0735 21.3822C-15.1246 20.3765 -15.6501 19.0509 -15.6501 17.4053C-15.6501 15.7597 -15.1246 14.434 -14.0735 13.4284C-12.9767 12.4227 -11.6514 11.9199 -10.0977 11.9199C-8.49817 11.9199 -7.17291 12.4227 -6.12183 13.4284C-5.07074 14.434 -4.54518 15.7597 -4.54518 17.4053C-4.54518 19.0509 -5.07074 20.3765 -6.12183 21.3822C-7.17291 22.3879 -8.49817 22.8907 -10.0977 22.8907Z" fill="#B8D5F0"/>
<path d="M9.4131 60.8772V33.9987H0.775909V26.8676H9.4131V20.5594C9.4131 18.2281 10.0986 16.3768 11.4696 15.0054C12.8862 13.5883 14.7142 12.8798 16.9535 12.8798H25.8648V20.0109H19.9696C18.69 20.0109 18.0503 20.6965 18.0503 22.0679V26.8676H26.9616V33.9987H18.0503V60.8772H9.4131Z" fill="#B8D5F0"/>
<path d="M37.35 74.5907V67.0483H55.8583C57.1378 67.0483 57.7776 66.3626 57.7776 64.9913V56.4203H56.5437C56.1781 57.1974 55.6069 57.9745 54.83 58.7516C54.0531 59.5287 53.0021 60.1687 51.6768 60.6715C50.3515 61.1743 48.6606 61.4257 46.6041 61.4257C43.9536 61.4257 41.6229 60.8315 39.6121 59.643C37.6471 58.4088 36.1161 56.7174 35.0194 54.569C33.9226 52.4205 33.3742 49.9521 33.3742 47.1637V26.8676H42.0113V46.478C42.0113 49.0378 42.6283 50.9577 43.8622 52.2377C45.1418 53.5176 46.9469 54.1576 49.2775 54.1576C51.9281 54.1576 53.9846 53.289 55.4469 51.552C56.9093 49.7692 57.6405 47.3008 57.6405 44.1467V26.8676H66.2777V66.9112C66.2777 69.2425 65.5922 71.0938 64.2212 72.4651C62.8502 73.8822 61.0223 74.5907 58.7373 74.5907H37.35Z" fill="#B8D5F0"/>
<path d="M225.047 -35.1164C230.988 -35.1164 235.695 -33.4707 239.168 -30.1795C242.641 -26.8425 244.378 -22.0885 244.378 -15.9174V-4.39803C244.378 1.77306 242.641 6.50423 239.168 9.79548C235.695 13.1324 230.988 14.8009 225.047 14.8009C219.152 14.8009 214.604 13.1782 211.405 9.93261C208.161 6.73279 206.539 2.3216 206.539 -3.30095V-3.71236H215.45V-3.02668C215.45 -0.192548 216.25 2.13875 217.849 3.96723C219.403 5.7957 221.802 6.70993 225.047 6.70993C228.246 6.70993 230.759 5.72713 232.587 3.76152C234.415 1.79592 235.329 -0.878224 235.329 -4.2609V-16.0545C235.329 -19.3915 234.415 -22.0656 232.587 -24.077C230.759 -26.0426 228.246 -27.0254 225.047 -27.0254C221.802 -27.0254 219.403 -26.1111 217.849 -24.2827C216.25 -22.4085 215.45 -20.0772 215.45 -17.2888V-16.0545H206.539V-17.0145C206.539 -22.637 208.161 -27.0711 211.405 -30.3166C214.604 -33.5164 219.152 -35.1164 225.047 -35.1164Z" fill="#315B76"/>
<path d="M198.892 -34.1564V-0.146837H190.391V-3.98663H189.158C188.655 -2.61527 187.832 -1.60961 186.69 -0.969648C185.502 -0.329683 184.131 -0.00970173 182.577 -0.00970173H178.464V-7.68928H182.714C184.908 -7.68928 186.713 -8.28354 188.129 -9.47204C189.546 -10.6148 190.254 -12.3976 190.254 -14.8203V-34.1564H198.892Z" fill="#315B76"/>
<path d="M157.426 -35.1164C160.808 -35.1164 163.801 -34.4078 166.406 -32.9908C168.965 -31.528 170.976 -29.4938 172.438 -26.8882C173.855 -24.237 174.563 -21.1286 174.563 -17.563V-16.7402C174.563 -13.1747 173.855 -10.0892 172.438 -7.48358C171.021 -4.8323 169.033 -2.79812 166.474 -1.38106C163.915 0.0817232 160.945 0.813112 157.563 0.813112C154.227 0.813112 151.325 0.0588675 148.857 -1.44962C146.389 -2.9124 144.47 -4.96943 143.099 -7.62072C141.728 -10.2263 141.043 -13.2661 141.043 -16.7402V-19.6886H165.789C165.697 -22.0199 164.829 -23.917 163.184 -25.3797C161.539 -26.8425 159.528 -27.5739 157.152 -27.5739C154.73 -27.5739 152.947 -27.0482 151.805 -25.9969C150.662 -24.9455 149.794 -23.7798 149.2 -22.4999L142.139 -26.2026C142.779 -27.3911 143.716 -28.6939 144.95 -30.1109C146.138 -31.4823 147.738 -32.6708 149.748 -33.6764C151.759 -34.6364 154.318 -35.1164 157.426 -35.1164ZM165.72 -13.2433H149.817C150 -11.2777 150.799 -9.7006 152.216 -8.5121C153.587 -7.32359 155.392 -6.72934 157.631 -6.72934C159.962 -6.72934 161.813 -7.32359 163.184 -8.5121C164.555 -9.7006 165.4 -11.2777 165.72 -13.2433Z" fill="#315B76"/>
<path d="M119.645 -35.1164C122.341 -35.1164 124.878 -34.4535 127.254 -33.1279C129.585 -31.7565 131.458 -29.7681 132.875 -27.1625C134.292 -24.5569 135 -21.4028 135 -17.7002V-16.6031C135 -12.9004 134.292 -9.74631 132.875 -7.14074C131.458 -4.53517 129.585 -2.56956 127.254 -1.24392C124.923 0.127436 122.387 0.813112 119.645 0.813112C117.589 0.813112 115.875 0.561696 114.504 0.0588646C113.087 -0.398252 111.945 -0.992506 111.077 -1.7239C110.208 -2.45528 109.546 -3.23238 109.089 -4.0552H107.855V13.841H99.2176V-34.1564H107.718V-30.0424H108.952C109.728 -31.3223 110.939 -32.4879 112.585 -33.5393C114.184 -34.5907 116.538 -35.1164 119.645 -35.1164ZM117.04 -27.5739C114.39 -27.5739 112.173 -26.7282 110.391 -25.0369C108.609 -23.2999 107.718 -20.7857 107.718 -17.4945V-16.8088C107.718 -13.5175 108.609 -11.0262 110.391 -9.33491C112.128 -7.59786 114.344 -6.72934 117.04 -6.72934C119.691 -6.72934 121.907 -7.59786 123.69 -9.33491C125.472 -11.0262 126.363 -13.5175 126.363 -16.8088V-17.4945C126.363 -20.7857 125.472 -23.2999 123.69 -25.0369C121.907 -26.7282 119.691 -27.5739 117.04 -27.5739Z" fill="#315B76"/>
<path d="M89.6416 -34.1564V-0.146837H81.0044V-34.1564H89.6416ZM85.323 3.83009C86.8768 3.83009 88.2021 4.33292 89.2988 5.33858C90.3499 6.34424 90.8755 7.66988 90.8755 9.3155C90.8755 10.9611 90.3499 12.2868 89.2988 13.2924C88.2021 14.2981 86.8768 14.8009 85.323 14.8009C83.7235 14.8009 82.3982 14.2981 81.3472 13.2924C80.2961 12.2868 79.7705 10.9611 79.7705 9.3155C79.7705 7.66988 80.2961 6.34424 81.3472 5.33858C82.3982 4.33292 83.7235 3.83009 85.323 3.83009Z" fill="#315B76"/>
<path d="M58.409 -34.1564C60.6482 -34.1564 62.4762 -33.4707 63.8929 -32.0994C65.2639 -30.6823 65.9494 -28.8081 65.9494 -26.4768V-7.27788H74.4494V-0.146837H65.9494V10.4126H57.3122V-0.146837H47.9895V-7.27788H57.3122V-24.9683C57.3122 -26.3397 56.6724 -27.0254 55.3928 -27.0254H48.8121V-34.1564H58.409Z" fill="#315B76"/>
<path d="M40.1712 -34.1564V-0.146837H31.534V-34.1564H40.1712ZM35.8526 3.83009C37.4064 3.83009 38.7316 4.33292 39.8284 5.33858C40.8795 6.34424 41.405 7.66988 41.405 9.3155C41.405 10.9611 40.8795 12.2868 39.8284 13.2924C38.7316 14.2981 37.4064 14.8009 35.8526 14.8009C34.2531 14.8009 32.9278 14.2981 31.8768 13.2924C30.8257 12.2868 30.3001 10.9611 30.3001 9.3155C30.3001 7.66988 30.8257 6.34424 31.8768 5.33858C32.9278 4.33292 34.2531 3.83009 35.8526 3.83009Z" fill="#315B76"/>
<path d="M16.3418 -34.1564V-7.27788H24.979V-0.146837H16.3418V6.16139C16.3418 8.49269 15.6564 10.344 14.2854 11.7154C12.8687 13.1324 11.0407 13.841 8.80144 13.841H-0.109909V6.70993H5.78529C7.06488 6.70993 7.70467 6.02426 7.70467 4.6529V-0.146837H-1.20671V-7.27788H7.70467V-34.1564H16.3418Z" fill="#315B76"/>
<path d="M-11.5951 -47.87V-40.3275H-30.1033C-31.3829 -40.3275 -32.0227 -39.6418 -32.0227 -38.2705V-29.6995H-30.7888C-30.4232 -30.4766 -29.852 -31.2537 -29.0751 -32.0308C-28.2982 -32.8079 -27.2471 -33.4479 -25.9218 -33.9507C-24.5966 -34.4535 -22.9057 -34.705 -20.8492 -34.705C-18.1986 -34.705 -15.868 -34.1107 -13.8572 -32.9222C-11.8922 -31.688 -10.3612 -29.9966 -9.26443 -27.8482C-8.16765 -25.6997 -7.61925 -23.2313 -7.61925 -20.4429V-0.146837H-16.2564V-19.7572C-16.2564 -22.3171 -16.8734 -24.237 -18.1072 -25.5169C-19.3868 -26.7968 -21.192 -27.4368 -23.5226 -27.4368C-26.1732 -27.4368 -28.2296 -26.5683 -29.692 -24.8312C-31.1544 -23.0484 -31.8856 -20.58 -31.8856 -17.4259V-0.146837H-40.5228V-40.1904C-40.5228 -42.5217 -39.8373 -44.373 -38.4663 -45.7444C-37.0953 -47.1614 -35.2673 -47.87 -32.9824 -47.87H-11.5951Z" fill="#315B76"/>
</g>
<path d="M41.1032 22.3706C38.8089 22.3706 36.9911 21.7353 35.6499 20.4646C34.3086 19.1763 33.638 17.3409 33.638 14.9583V10.511C33.638 8.12844 34.3086 6.30185 35.6499 5.03117C36.9911 3.74284 38.8089 3.09868 41.1032 3.09868C43.3798 3.09868 45.1358 3.72519 46.3712 4.97822C47.6242 6.2136 48.2507 7.91666 48.2507 10.0874V10.2462H44.8093V9.98151C44.8093 8.88732 44.5005 7.98726 43.8828 7.28132C43.2827 6.57539 42.3562 6.22243 41.1032 6.22243C39.8678 6.22243 38.8971 6.60187 38.1912 7.36074C37.4853 8.11962 37.1323 9.15204 37.1323 10.458V15.0113C37.1323 16.2996 37.4853 17.332 38.1912 18.1086C38.8971 18.8674 39.8678 19.2469 41.1032 19.2469C42.3562 19.2469 43.2827 18.8939 43.8828 18.188C44.5005 17.4644 44.8093 16.5643 44.8093 15.4878V15.0113H48.2507V15.3819C48.2507 17.5526 47.6242 19.2645 46.3712 20.5175C45.1358 21.7529 43.3798 22.3706 41.1032 22.3706ZM51.2039 22V8.86967H54.4864V10.3521H54.963C55.1571 9.82268 55.4748 9.43442 55.916 9.18734C56.3748 8.94026 56.9043 8.81673 57.5043 8.81673H59.0927V11.7816H57.4514C56.6042 11.7816 55.9071 12.0111 55.36 12.4699C54.8129 12.9111 54.5394 13.5994 54.5394 14.5348V22H51.2039ZM67.2172 22.3706C65.9112 22.3706 64.7553 22.0971 63.7493 21.55C62.761 20.9852 61.9845 20.1999 61.4197 19.1939C60.8726 18.1703 60.5991 16.9702 60.5991 15.5937V15.276C60.5991 13.8994 60.8726 12.7082 61.4197 11.7022C61.9668 10.6786 62.7345 9.89327 63.7228 9.34618C64.7111 8.78143 65.8583 8.49906 67.1643 8.49906C68.4526 8.49906 69.5733 8.79025 70.5263 9.37265C71.4793 9.93739 72.2205 10.7316 72.7499 11.7552C73.2794 12.7611 73.5441 13.9347 73.5441 15.276V16.4143H63.9876C64.0229 17.3144 64.3582 18.0468 64.9935 18.6115C65.6289 19.1763 66.4054 19.4586 67.3231 19.4586C68.2585 19.4586 68.9467 19.2557 69.3879 18.8498C69.8292 18.4439 70.1645 17.9938 70.3939 17.4997L73.1206 18.9292C72.8735 19.3881 72.5117 19.891 72.0352 20.4381C71.5763 20.9676 70.9586 21.4264 70.1821 21.8147C69.4056 22.1853 68.4173 22.3706 67.2172 22.3706ZM64.014 13.9259H70.1556C70.0851 13.167 69.7762 12.5582 69.2291 12.0993C68.6997 11.6405 68.0026 11.411 67.1378 11.411C66.2377 11.411 65.523 11.6405 64.9935 12.0993C64.4641 12.5582 64.1376 13.167 64.014 13.9259ZM81.8074 22.3706C80.7662 22.3706 79.7867 22.1147 78.869 21.6029C77.9689 21.0735 77.2454 20.3058 76.6983 19.2998C76.1512 18.2939 75.8776 17.0761 75.8776 15.6466V15.2231C75.8776 13.7935 76.1512 12.5758 76.6983 11.5699C77.2454 10.5639 77.9689 9.80503 78.869 9.29323C79.7691 8.76378 80.7485 8.49906 81.8074 8.49906C82.6016 8.49906 83.2634 8.59612 83.7929 8.79025C84.34 8.96674 84.7812 9.19617 85.1165 9.47854C85.4518 9.76091 85.7077 10.0609 85.8842 10.3786H86.3607V3.46929H89.6962V22H86.4137V20.4117H85.9371C85.6371 20.9058 85.1694 21.3558 84.5341 21.7617C83.9164 22.1677 83.0075 22.3706 81.8074 22.3706ZM82.8134 19.4586C83.837 19.4586 84.6929 19.1322 85.3812 18.4792C86.0695 17.8085 86.4137 16.8379 86.4137 15.5672V15.3025C86.4137 14.0318 86.0695 13.07 85.3812 12.417C84.7106 11.7463 83.8546 11.411 82.8134 11.411C81.7898 11.411 80.9339 11.7463 80.2456 12.417C79.5573 13.07 79.2131 14.0318 79.2131 15.3025V15.5672C79.2131 16.8379 79.5573 17.8085 80.2456 18.4792C80.9339 19.1322 81.7898 19.4586 82.8134 19.4586ZM93.3943 22V8.86967H96.7298V22H93.3943ZM95.0621 7.33427C94.462 7.33427 93.9502 7.14014 93.5267 6.75188C93.1208 6.36361 92.9178 5.85181 92.9178 5.21648C92.9178 4.58114 93.1208 4.06934 93.5267 3.68107C93.9502 3.29281 94.462 3.09868 95.0621 3.09868C95.6798 3.09868 96.1916 3.29281 96.5975 3.68107C97.0034 4.06934 97.2063 4.58114 97.2063 5.21648C97.2063 5.85181 97.0034 6.36361 96.5975 6.75188C96.1916 7.14014 95.6798 7.33427 95.0621 7.33427ZM105.456 22C104.591 22 103.885 21.7353 103.338 21.2058C102.809 20.6587 102.544 19.9351 102.544 19.0351V11.6228H99.2613V8.86967H102.544V4.79292H105.879V8.86967H109.48V11.6228H105.879V18.4527C105.879 18.9821 106.126 19.2469 106.621 19.2469H109.162V22H105.456ZM112.499 22V8.86967H115.834V22H112.499ZM114.167 7.33427C113.567 7.33427 113.055 7.14014 112.631 6.75188C112.225 6.36361 112.022 5.85181 112.022 5.21648C112.022 4.58114 112.225 4.06934 112.631 3.68107C113.055 3.29281 113.567 3.09868 114.167 3.09868C114.784 3.09868 115.296 3.29281 115.702 3.68107C116.108 4.06934 116.311 4.58114 116.311 5.21648C116.311 5.85181 116.108 6.36361 115.702 6.75188C115.296 7.14014 114.784 7.33427 114.167 7.33427ZM121.701 22V11.6228H118.366V8.86967H121.701V6.43421C121.701 5.53414 121.966 4.81939 122.496 4.28994C123.043 3.74284 123.749 3.46929 124.613 3.46929H128.055V6.22243H125.778C125.284 6.22243 125.037 6.48715 125.037 7.0166V8.86967H128.478V11.6228H125.037V22H121.701ZM132.49 27.2945V24.3825H139.638C140.132 24.3825 140.379 24.1178 140.379 23.5883V20.2793H139.902C139.761 20.5793 139.541 20.8793 139.241 21.1794C138.941 21.4794 138.535 21.7265 138.023 21.9206C137.511 22.1147 136.858 22.2118 136.064 22.2118C135.04 22.2118 134.14 21.9824 133.364 21.5235C132.605 21.047 132.014 20.394 131.59 19.5645C131.167 18.7351 130.955 17.7821 130.955 16.7055V8.86967H134.29V16.4408C134.29 17.4291 134.529 18.1703 135.005 18.6645C135.499 19.1586 136.196 19.4057 137.096 19.4057C138.12 19.4057 138.914 19.0704 139.479 18.3997C140.044 17.7115 140.326 16.7585 140.326 15.5407V8.86967H143.662V24.3296C143.662 25.2296 143.397 25.9444 142.867 26.4738C142.338 27.0209 141.632 27.2945 140.75 27.2945H132.49Z" fill="#E4F2FF"/>
<defs>
<clipPath id="clip0_116_2">
<rect y="0.0336123" width="25.9328" height="25.9328" rx="2.922" fill="white"/>
</clipPath>
</defs>
</svg>
