<svg width="91" height="91" viewBox="0 0 91 91" fill="none" xmlns="http://www.w3.org/2000/svg">
<path d="M90.3 40.8405C79.9 -19.2595 1.4 -7.6595 0 40.8405C4.5 43.1405 7.4 44.6405 7.4 44.6405C7.4 44.6405 5 46.0405 0 49.3405C9.1 108.341 86.3 99.7405 90.4 49.2405C85.5 46.2405 82.8 44.6405 82.8 44.6405C82.8 44.6405 85 43.5405 90.3 40.8405ZM51.6 61.8405L44.2 49.1405L36.8 61.8405L31.1 61.4405L41.8 43.4405L32.2 27.9405L38 27.4405L44.8 38.9405L51.6 27.9405L57 28.0405L48.1 43.3405L58 61.6405L51.6 61.8405Z" fill="#B8B5B1"/>
<path d="M86.6 38.4404C72.5 -14.9596 7.99998 -0.559578 3.59998 38.4404C12.5 43.4404 14.6 44.6404 14.6 44.6404C14.6 44.6404 11.1 46.8404 3.59998 51.6404C13.2 103.04 82.8 93.1404 86.6 51.5404C79.6 47.1404 75.4 44.5404 75.4 44.5404C75.4 44.5404 84.9 39.4404 86.6 38.4404ZM51.6 61.9404L44.2 49.2404L36.7 61.9404L31 61.5404L41.7 43.5404L32.1 28.0404L37.9 27.5404L44.7 39.0404L51.5 28.0404L56.9 28.1404L48 43.4404L58 61.7404L51.6 61.9404Z" fill="#254C82"/>
</svg>
