<svg width="134" height="25" viewBox="0 0 134 25" fill="none" xmlns="http://www.w3.org/2000/svg">
<g clip-path="url(#clip0_213_26)">
<path d="M-181.997 56.5988C-187.422 56.5988 -191.721 55.096 -194.892 52.0904C-198.064 49.043 -199.65 44.7015 -199.65 39.066V28.5463C-199.65 22.9107 -198.064 18.5901 -194.892 15.5845C-191.721 12.5371 -187.422 11.0134 -181.997 11.0134C-176.613 11.0134 -172.461 12.4954 -169.539 15.4593C-166.576 18.3814 -165.095 22.4098 -165.095 27.5444V27.9201H-173.233V27.2939C-173.233 24.7057 -173.963 22.5767 -175.424 20.907C-176.843 19.2372 -179.034 18.4023 -181.997 18.4023C-184.918 18.4023 -187.213 19.2998 -188.883 21.0948C-190.552 22.8898 -191.387 25.3319 -191.387 28.421V39.1912C-191.387 42.2386 -190.552 44.6806 -188.883 46.5174C-187.213 48.3124 -184.918 49.21 -181.997 49.21C-179.034 49.21 -176.843 48.3751 -175.424 46.7053C-173.963 44.9937 -173.233 42.8647 -173.233 40.3183V39.1912H-165.095V40.0678C-165.095 45.2025 -166.576 49.2517 -169.539 52.2156C-172.461 55.1377 -176.613 56.5988 -181.997 56.5988Z" fill="#B8D5F0"/>
<path d="M-158.111 55.7221V24.664H-150.349V28.1706H-149.222C-148.763 26.9182 -148.012 25.9998 -146.968 25.4154C-145.883 24.831 -144.631 24.5388 -143.212 24.5388H-139.456V31.5519H-143.338C-145.341 31.5519 -146.989 32.0946 -148.283 33.1799C-149.577 34.2236 -150.224 35.8516 -150.224 38.0641V55.7221H-158.111Z" fill="#B8D5F0"/>
<path d="M-120.244 56.5988C-123.332 56.5988 -126.066 55.9517 -128.445 54.6577C-130.782 53.3218 -132.618 51.4642 -133.953 49.0847C-135.247 46.6635 -135.894 43.8249 -135.894 40.5688V39.8174C-135.894 36.5613 -135.247 33.7435 -133.953 31.364C-132.66 28.9428 -130.844 27.0852 -128.507 25.7911C-126.17 24.4553 -123.457 23.7873 -120.369 23.7873C-117.323 23.7873 -114.673 24.4761 -112.419 25.8537C-110.165 27.1896 -108.413 29.0681 -107.161 31.4893C-105.909 33.8687 -105.283 36.6448 -105.283 39.8174V42.5099H-127.881C-127.798 44.6389 -127.005 46.3713 -125.502 47.7071C-124 49.043 -122.164 49.7109 -119.994 49.7109C-117.782 49.7109 -116.154 49.2308 -115.111 48.2707C-114.067 47.3106 -113.275 46.2461 -112.732 45.0772L-106.284 48.4585C-106.868 49.5439 -107.724 50.7336 -108.851 52.0277C-109.936 53.2801 -111.397 54.3654 -113.233 55.2838C-115.069 56.1605 -117.406 56.5988 -120.244 56.5988ZM-127.819 36.6239H-113.295C-113.462 34.8289 -114.193 33.3887 -115.486 32.3033C-116.738 31.2179 -118.387 30.6752 -120.432 30.6752C-122.56 30.6752 -124.25 31.2179 -125.502 32.3033C-126.754 33.3887 -127.526 34.8289 -127.819 36.6239Z" fill="#B8D5F0"/>
<path d="M-85.742 56.5988C-88.2043 56.5988 -90.5205 55.9935 -92.6906 54.7829C-94.819 53.5305 -96.5301 51.7146 -97.8238 49.3352C-99.1176 46.9557 -99.7644 44.0753 -99.7644 40.694V39.6921C-99.7644 36.3108 -99.1176 33.4304 -97.8238 31.051C-96.5301 28.6715 -94.819 26.8765 -92.6906 25.6659C-90.5622 24.4135 -88.246 23.7873 -85.742 23.7873C-83.864 23.7873 -82.299 24.0169 -81.047 24.4761C-79.7533 24.8936 -78.7099 25.4363 -77.917 26.1042C-77.124 26.7721 -76.5189 27.4818 -76.1016 28.2332H-74.9748V11.8901H-67.0871V55.7221H-74.8496V51.9651H-75.9764C-76.6858 53.134 -77.7918 54.1985 -79.2942 55.1586C-80.7549 56.1187 -82.9041 56.5988 -85.742 56.5988ZM-83.3632 49.7109C-80.9426 49.7109 -78.9186 48.9386 -77.291 47.3941C-75.6634 45.8078 -74.8496 43.5118 -74.8496 40.5062V39.88C-74.8496 36.8744 -75.6634 34.5993 -77.291 33.0547C-78.8768 31.4684 -80.9009 30.6752 -83.3632 30.6752C-85.7837 30.6752 -87.8078 31.4684 -89.4354 33.0547C-91.063 34.5993 -91.8768 36.8744 -91.8768 39.88V40.5062C-91.8768 43.5118 -91.063 45.8078 -89.4354 47.3941C-87.8078 48.9386 -85.7837 49.7109 -83.3632 49.7109Z" fill="#B8D5F0"/>
<path d="M-58.3422 55.7221V24.664H-50.4546V55.7221H-58.3422ZM-54.3984 21.0322C-55.8173 21.0322 -57.0276 20.573 -58.0292 19.6546C-58.9891 18.7362 -59.469 17.5256 -59.469 16.0228C-59.469 14.52 -58.9891 13.3094 -58.0292 12.391C-57.0276 11.4726 -55.8173 11.0134 -54.3984 11.0134C-52.9377 11.0134 -51.7274 11.4726 -50.7676 12.391C-49.8077 13.3094 -49.3278 14.52 -49.3278 16.0228C-49.3278 17.5256 -49.8077 18.7362 -50.7676 19.6546C-51.7274 20.573 -52.9377 21.0322 -54.3984 21.0322Z" fill="#B8D5F0"/>
<path d="M-29.82 55.7221C-31.8649 55.7221 -33.5343 55.096 -34.828 53.8436C-36.08 52.5495 -36.706 50.838 -36.706 48.709V31.1762H-44.4684V24.664H-36.706V15.0209H-28.8184V24.664H-20.3048V31.1762H-28.8184V47.3314C-28.8184 48.5838 -28.2341 49.21 -27.0656 49.21H-21.056V55.7221H-29.82Z" fill="#B8D5F0"/>
<path d="M-13.1649 55.7221V24.664H-5.27728V55.7221H-13.1649ZM-9.22108 21.0322C-10.64 21.0322 -11.8503 20.573 -12.8519 19.6546C-13.8118 18.7362 -14.2917 17.5256 -14.2917 16.0228C-14.2917 14.52 -13.8118 13.3094 -12.8519 12.391C-11.8503 11.4726 -10.64 11.0134 -9.22108 11.0134C-7.76042 11.0134 -6.55016 11.4726 -5.59029 12.391C-4.63042 13.3094 -4.15047 14.52 -4.15047 16.0228C-4.15047 17.5256 -4.63042 18.7362 -5.59029 19.6546C-6.55016 20.573 -7.76042 21.0322 -9.22108 21.0322Z" fill="#B8D5F0"/>
<path d="M8.59648 55.7221V31.1762H0.708847V24.664H8.59648V18.9032C8.59648 16.7742 9.22247 15.0835 10.4745 13.8312C11.7682 12.5371 13.4376 11.8901 15.4825 11.8901H23.6205V18.4023H18.2369C17.0684 18.4023 16.4841 19.0284 16.4841 20.2808V24.664H24.6221V31.1762H16.4841V55.7221H8.59648Z" fill="#B8D5F0"/>
<path d="M34.109 68.2456V61.3577H51.011C52.1796 61.3577 52.7638 60.7315 52.7638 59.4792V51.652H51.637C51.3032 52.3617 50.7815 53.0714 50.072 53.781C49.3626 54.4907 48.4027 55.0751 47.1924 55.5343C45.9822 55.9935 44.438 56.2231 42.56 56.2231C40.1395 56.2231 38.0111 55.6804 36.1748 54.595C34.3803 53.4679 32.9822 51.9234 31.9806 49.9614C30.979 47.9994 30.4782 45.7451 30.4782 43.1987V24.664H38.3658V42.5725C38.3658 44.9102 38.9292 46.6635 40.056 47.8324C41.2245 49.0012 42.873 49.5857 45.0014 49.5857C47.422 49.5857 49.3 48.7925 50.6354 47.2062C51.9709 45.5782 52.6386 43.3239 52.6386 40.4435V24.664H60.5263V61.2325C60.5263 63.3615 59.9003 65.0521 58.6483 66.3045C57.3963 67.5986 55.7269 68.2456 53.6402 68.2456H34.109Z" fill="#B8D5F0"/>
<path d="M205.517 -31.9408C210.943 -31.9408 215.241 -30.438 218.413 -27.4324C221.585 -24.385 223.17 -20.0436 223.17 -14.408V-3.8883C223.17 1.74725 221.585 6.06784 218.413 9.07347C215.241 12.1208 210.943 13.6445 205.517 13.6445C200.134 13.6445 195.981 12.1626 193.06 9.1987C190.097 6.27657 188.615 2.24819 188.615 -2.88643V-3.26213H196.753V-2.63596C196.753 -0.0477762 197.483 2.08121 198.944 3.75101C200.363 5.4208 202.554 6.25569 205.517 6.25569C208.438 6.25569 210.734 5.35818 212.403 3.56315C214.073 1.76813 214.907 -0.673948 214.907 -3.76307V-14.5332C214.907 -17.5806 214.073 -20.0227 212.403 -21.8595C210.734 -23.6545 208.438 -24.552 205.517 -24.552C202.554 -24.552 200.363 -23.7171 198.944 -22.0473C197.483 -20.3358 196.753 -18.2068 196.753 -15.6603V-14.5332H188.615V-15.4099C188.615 -20.5445 190.097 -24.5937 193.06 -27.5576C195.981 -30.4798 200.134 -31.9408 205.517 -31.9408Z" fill="#315B76"/>
<path d="M181.632 -31.0642V-0.00603199H173.869V-3.5126H172.743C172.283 -2.26025 171.532 -1.34187 170.489 -0.757439C169.404 -0.173011 168.152 0.119203 166.733 0.119203H162.977V-6.89393H166.858C168.861 -6.89393 170.51 -7.43661 171.804 -8.52198C173.097 -9.5656 173.744 -11.1937 173.744 -13.4061V-31.0642H181.632Z" fill="#315B76"/>
<path d="M143.765 -31.9408C146.853 -31.9408 149.586 -31.2938 151.965 -29.9997C154.302 -28.6639 156.138 -26.8062 157.474 -24.4268C158.768 -22.0056 159.415 -19.1669 159.415 -15.9108V-15.1594C159.415 -11.9033 158.768 -9.08554 157.474 -6.70608C156.18 -4.28488 154.365 -2.42723 152.028 -1.13314C149.691 0.202693 146.978 0.870611 143.89 0.870611C140.843 0.870611 138.193 0.181821 135.939 -1.19576C133.686 -2.5316 131.933 -4.41011 130.681 -6.83131C129.429 -9.21077 128.803 -11.9868 128.803 -15.1594V-17.852H151.402C151.318 -19.9809 150.525 -21.7133 149.023 -23.0492C147.521 -24.385 145.684 -25.0529 143.514 -25.0529C141.302 -25.0529 139.675 -24.5729 138.631 -23.6127C137.588 -22.6526 136.795 -21.5881 136.252 -20.4193L129.805 -23.8006C130.389 -24.886 131.244 -26.0757 132.371 -27.3698C133.456 -28.6221 134.917 -29.7075 136.753 -30.6259C138.59 -31.5025 140.927 -31.9408 143.765 -31.9408ZM151.339 -11.9659H136.816C136.983 -10.1709 137.713 -8.7307 139.007 -7.64534C140.259 -6.55997 141.907 -6.01729 143.952 -6.01729C146.081 -6.01729 147.771 -6.55997 149.023 -7.64534C150.275 -8.7307 151.047 -10.1709 151.339 -11.9659Z" fill="#315B76"/>
<path d="M109.263 -31.9408C111.725 -31.9408 114.041 -31.3355 116.211 -30.1249C118.34 -28.8726 120.051 -27.0567 121.344 -24.6772C122.638 -22.2978 123.285 -19.4174 123.285 -16.0361V-15.0342C123.285 -11.6528 122.638 -8.77245 121.344 -6.39299C120.051 -4.01353 118.34 -2.21851 116.211 -1.00791C114.083 0.244438 111.767 0.870611 109.263 0.870611C107.384 0.870611 105.82 0.641013 104.567 0.181819C103.274 -0.235629 102.23 -0.778312 101.437 -1.44623C100.645 -2.11415 100.039 -2.82381 99.6221 -3.57522H98.4953V12.7679H90.6077V-31.0642H98.3701V-27.3072H99.4969C100.206 -28.476 101.312 -29.5405 102.815 -30.5006C104.275 -31.4608 106.425 -31.9408 109.263 -31.9408ZM106.884 -25.0529C104.463 -25.0529 102.439 -24.2807 100.811 -22.7361C99.1839 -21.1498 98.3701 -18.8538 98.3701 -15.8482V-15.222C98.3701 -12.2164 99.1839 -9.94131 100.811 -8.39675C102.397 -6.81044 104.421 -6.01729 106.884 -6.01729C109.304 -6.01729 111.328 -6.81044 112.956 -8.39675C114.584 -9.94131 115.397 -12.2164 115.397 -15.222V-15.8482C115.397 -18.8538 114.584 -21.1498 112.956 -22.7361C111.328 -24.2807 109.304 -25.0529 106.884 -25.0529Z" fill="#315B76"/>
<path d="M81.8627 -31.0642V-0.00603199H73.9751V-31.0642H81.8627ZM77.9189 3.62577C79.3378 3.62577 80.5481 4.08496 81.5497 5.00335C82.5096 5.92174 82.9895 7.13234 82.9895 8.63515C82.9895 10.138 82.5096 11.3486 81.5497 12.267C80.5481 13.1853 79.3378 13.6445 77.9189 13.6445C76.4582 13.6445 75.2479 13.1853 74.2881 12.267C73.3282 11.3486 72.8483 10.138 72.8483 8.63515C72.8483 7.13234 73.3282 5.92174 74.2881 5.00335C75.2479 4.08496 76.4582 3.62577 77.9189 3.62577Z" fill="#315B76"/>
<path d="M53.3405 -31.0642C55.3854 -31.0642 57.0548 -30.438 58.3485 -29.1857C59.6005 -27.8916 60.2265 -26.18 60.2265 -24.0511V-6.51823H67.989V-0.00603199H60.2265V9.63703H52.3389V-0.00603199H43.8253V-6.51823H52.3389V-22.6735C52.3389 -23.9258 51.7546 -24.552 50.5861 -24.552H44.5765V-31.0642H53.3405Z" fill="#315B76"/>
<path d="M36.6854 -31.0642V-0.00603199H28.7978V-31.0642H36.6854ZM32.7416 3.62577C34.1605 3.62577 35.3708 4.08496 36.3724 5.00335C37.3323 5.92174 37.8122 7.13234 37.8122 8.63515C37.8122 10.138 37.3323 11.3486 36.3724 12.267C35.3708 13.1853 34.1605 13.6445 32.7416 13.6445C31.2809 13.6445 30.0707 13.1853 29.1108 12.267C28.1509 11.3486 27.671 10.138 27.671 8.63515C27.671 7.13234 28.1509 5.92174 29.1108 5.00335C30.0707 4.08496 31.2809 3.62577 32.7416 3.62577Z" fill="#315B76"/>
<path d="M14.924 -31.0642V-6.51823H22.8117V-0.00603199H14.924V5.75475C14.924 7.88374 14.298 9.57441 13.046 10.8268C11.7523 12.1208 10.0829 12.7679 8.03801 12.7679H-0.100006V6.25569H5.2836C6.45215 6.25569 7.03641 5.62952 7.03641 4.37718V-0.00603199H-1.10162V-6.51823H7.03641V-31.0642H14.924Z" fill="#315B76"/>
<path d="M-10.5885 -43.5876V-36.6997H-27.4905C-28.6591 -36.6997 -29.2433 -36.0736 -29.2433 -34.8212V-26.9941H-28.1165C-27.7827 -27.7037 -27.261 -28.4134 -26.5515 -29.1231C-25.8421 -29.8327 -24.8822 -30.4171 -23.6719 -30.8763C-22.4617 -31.3355 -20.9175 -31.5651 -19.0395 -31.5651C-16.619 -31.5651 -14.4906 -31.0224 -12.6543 -29.9371C-10.8598 -28.81 -9.46169 -27.2654 -8.46008 -25.3034C-7.45848 -23.3414 -6.95767 -21.0872 -6.95767 -18.5407V-0.00603199H-14.8453V-17.9146C-14.8453 -20.2523 -15.4087 -22.0056 -16.5355 -23.1744C-17.704 -24.3433 -19.3525 -24.9277 -21.4809 -24.9277C-23.9015 -24.9277 -25.7795 -24.1345 -27.1149 -22.5482C-28.4504 -20.9202 -29.1181 -18.666 -29.1181 -15.7856V-0.00603199H-37.0058V-36.5745C-37.0058 -38.7035 -36.3798 -40.3942 -35.1277 -41.6465C-33.8758 -42.9406 -32.2064 -43.5876 -30.1197 -43.5876H-10.5885Z" fill="#315B76"/>
</g>
<path d="M37.4828 20.3385C35.3876 20.3385 33.7276 19.7582 32.5027 18.5978C31.2778 17.4213 30.6654 15.7452 30.6654 13.5694V9.508C30.6654 7.33224 31.2778 5.66416 32.5027 4.50375C33.7276 3.32723 35.3876 2.73897 37.4828 2.73897C39.5618 2.73897 41.1655 3.31112 42.2936 4.4554C43.4379 5.58358 44.0101 7.13884 44.0101 9.1212V9.26625H40.8673V9.0245C40.8673 8.02526 40.5852 7.20331 40.0212 6.55864C39.4732 5.91397 38.6271 5.59163 37.4828 5.59163C36.3546 5.59163 35.4682 5.93814 34.8235 6.63116C34.1788 7.32418 33.8565 8.26701 33.8565 9.45965V13.6178C33.8565 14.7943 34.1788 15.7371 34.8235 16.4463C35.4682 17.1393 36.3546 17.4858 37.4828 17.4858C38.6271 17.4858 39.4732 17.1635 40.0212 16.5188C40.5852 15.858 40.8673 15.036 40.8673 14.0529V13.6178H44.0101V13.9562C44.0101 15.9386 43.4379 17.5019 42.2936 18.6462C41.1655 19.7744 39.5618 20.3385 37.4828 20.3385ZM46.7069 20V8.00914H49.7046V9.36295H50.1398C50.3171 8.87945 50.6072 8.52488 51.0101 8.29925C51.4291 8.07361 51.9126 7.96079 52.4606 7.96079H53.9111V10.6684H52.4122C51.6386 10.6684 51.002 10.8779 50.5024 11.297C50.0028 11.6999 49.753 12.3284 49.753 13.1826V20H46.7069ZM61.3306 20.3385C60.1379 20.3385 59.0823 20.0886 58.1636 19.589C57.2611 19.0733 56.552 18.3561 56.0362 17.4374C55.5366 16.5027 55.2868 15.4067 55.2868 14.1496V13.8595C55.2868 12.6024 55.5366 11.5145 56.0362 10.5959C56.5358 9.66111 57.2369 8.94392 58.1395 8.4443C59.042 7.92856 60.0896 7.67069 61.2822 7.67069C62.4587 7.67069 63.4822 7.93662 64.3525 8.46847C65.2228 8.98421 65.8997 9.70946 66.3832 10.6442C66.8667 11.5629 67.1084 12.6346 67.1084 13.8595V14.8991H58.3812C58.4134 15.721 58.7197 16.3899 59.2999 16.9056C59.8801 17.4213 60.5892 17.6792 61.4273 17.6792C62.2815 17.6792 62.91 17.4938 63.3129 17.1232C63.7159 16.7525 64.0221 16.3415 64.2316 15.8902L66.7216 17.1957C66.496 17.6147 66.1656 18.074 65.7304 18.5737C65.3114 19.0572 64.7473 19.4762 64.0382 19.8308C63.3291 20.1692 62.4265 20.3385 61.3306 20.3385ZM58.4054 12.6266H64.014C63.9495 11.9336 63.6675 11.3775 63.1679 10.9585C62.6844 10.5395 62.0478 10.33 61.2581 10.33C60.4361 10.33 59.7834 10.5395 59.2999 10.9585C58.8164 11.3775 58.5182 11.9336 58.4054 12.6266ZM74.6546 20.3385C73.7038 20.3385 72.8093 20.1048 71.9712 19.6374C71.1493 19.1539 70.4885 18.4528 69.9889 17.5341C69.4892 16.6155 69.2394 15.5034 69.2394 14.198V13.8112C69.2394 12.5057 69.4892 11.3937 69.9889 10.475C70.4885 9.55635 71.1493 8.86333 71.9712 8.39595C72.7932 7.91244 73.6876 7.67069 74.6546 7.67069C75.3799 7.67069 75.9843 7.75934 76.4678 7.93662C76.9674 8.09779 77.3703 8.3073 77.6765 8.56517C77.9828 8.82304 78.2164 9.09703 78.3776 9.38713H78.8128V3.07742H81.8588V20H78.8611V18.5495H78.426C78.152 19.0008 77.7249 19.4117 77.1447 19.7824C76.5806 20.1531 75.7506 20.3385 74.6546 20.3385ZM75.5733 17.6792C76.5081 17.6792 77.2897 17.381 77.9183 16.7847C78.5468 16.1723 78.8611 15.2859 78.8611 14.1254V13.8837C78.8611 12.7233 78.5468 11.8449 77.9183 11.2486C77.3059 10.6362 76.5242 10.33 75.5733 10.33C74.6385 10.33 73.8569 10.6362 73.2283 11.2486C72.5998 11.8449 72.2855 12.7233 72.2855 13.8837V14.1254C72.2855 15.2859 72.5998 16.1723 73.2283 16.7847C73.8569 17.381 74.6385 17.6792 75.5733 17.6792ZM85.236 20V8.00914H88.282V20H85.236ZM86.759 6.60699C86.211 6.60699 85.7437 6.4297 85.3569 6.07514C84.9862 5.72057 84.8008 5.25318 84.8008 4.67298C84.8008 4.09278 84.9862 3.62539 85.3569 3.27082C85.7437 2.91625 86.211 2.73897 86.759 2.73897C87.3231 2.73897 87.7905 2.91625 88.1612 3.27082C88.5319 3.62539 88.7172 4.09278 88.7172 4.67298C88.7172 5.25318 88.5319 5.72057 88.1612 6.07514C87.7905 6.4297 87.3231 6.60699 86.759 6.60699ZM96.2508 20C95.461 20 94.8164 19.7582 94.3168 19.2747C93.8333 18.7751 93.5915 18.1143 93.5915 17.2924V10.5234H90.5938V8.00914H93.5915V4.28618H96.6376V8.00914H99.9254V10.5234H96.6376V16.7605C96.6376 17.244 96.8632 17.4858 97.3145 17.4858H99.6353V20H96.2508ZM102.683 20V8.00914H105.729V20H102.683ZM104.206 6.60699C103.658 6.60699 103.19 6.4297 102.804 6.07514C102.433 5.72057 102.248 5.25318 102.248 4.67298C102.248 4.09278 102.433 3.62539 102.804 3.27082C103.19 2.91625 103.658 2.73897 104.206 2.73897C104.77 2.73897 105.237 2.91625 105.608 3.27082C105.979 3.62539 106.164 4.09278 106.164 4.67298C106.164 5.25318 105.979 5.72057 105.608 6.07514C105.237 6.4297 104.77 6.60699 104.206 6.60699ZM111.087 20V10.5234H108.04V8.00914H111.087V5.78504C111.087 4.96308 111.328 4.31035 111.812 3.82685C112.311 3.32723 112.956 3.07742 113.746 3.07742H116.889V5.59163H114.81C114.358 5.59163 114.133 5.83339 114.133 6.31689V8.00914H117.275V10.5234H114.133V20H111.087ZM120.939 24.835V22.1758H127.466C127.918 22.1758 128.143 21.934 128.143 21.4505V18.4286H127.708C127.579 18.7026 127.378 18.9766 127.104 19.2506C126.83 19.5246 126.459 19.7502 125.992 19.9275C125.524 20.1048 124.928 20.1934 124.203 20.1934C123.268 20.1934 122.446 19.9839 121.737 19.5648C121.044 19.1297 120.504 18.5334 120.117 17.7759C119.73 17.0184 119.537 16.1481 119.537 15.165V8.00914H122.583V14.9232C122.583 15.8258 122.801 16.5027 123.236 16.9539C123.687 17.4052 124.324 17.6308 125.145 17.6308C126.08 17.6308 126.806 17.3246 127.321 16.7122C127.837 16.0836 128.095 15.2133 128.095 14.1013V8.00914H131.141V22.1274C131.141 22.9494 130.899 23.6021 130.416 24.0856C129.932 24.5852 129.288 24.835 128.482 24.835H120.939Z" fill="white"/>
<defs>
<clipPath id="clip0_213_26">
<rect y="0.158936" width="23.6823" height="23.6823" rx="2.66843" fill="white"/>
</clipPath>
</defs>
</svg>
